# xmcd
#
# Track frame offsets:
# 150
# 12455
# 21800
# 35245
# 47320
# 60465
# 72195
# 83970
# 96722
# 109302
# 122917
# 137617
# 152612
#
# Disc length: 2227 seconds
#
#
# Revision: 0
# Processed by: cddbd v1.4PL0 Copyright (c) Steve Scherf et al.
# Submitted via: FreeRIP 2.00 
#
DISCID=b108b10d
DTITLE=Javier Solis - LAS INÉDITAS DE JAVIER SOLIS.
DYEAR=1900
DGENRE=Ranchera
TTITLE0=RECORDANDOTE
TTITLE1=POQUITO
TTITLE2=QUIZA EN LA ETERNIDAD
TTITLE3=ERES TÚ MI VIDA
TTITLE4=SUEÑO EN TU REGRESO
TTITLE5=HISTORIA DE MI VIDA
TTITLE6=LO QUE NO SÉ
TTITLE7=TU AMIGO DE AYER
TTITLE8=LLORARAS EN NAVIDAD
TTITLE9=LLORARAS EN NAVIDAD
TTITLE10=TÚ Y LA NOCHE
TTITLE11=ESCRIBEME
TTITLE12=VEINTICUATRO HORAS
EXTD=
EXTT0=
EXTT1=
EXTT2=
EXTT3=
EXTT4=
EXTT5=
EXTT6=
EXTT7=
EXTT8=
EXTT9=
EXTT10=
EXTT11=
EXTT12=
PLAYORDER=
